<svg xmlns="http://www.w3.org/2000/svg" viewBox="0 0 64 64" role="img" aria-labelledby="title">
  <title id="title">IABT-JERICHO</title>
  <defs>
    <filter id="glow" x="-40%" y="-40%" width="180%" height="180%">
      <feGaussianBlur stdDeviation="1.4" result="blur"/>
      <feMerge><feMergeNode in="blur"/><feMergeNode in="SourceGraphic"/></feMerge>
    </filter>
    <linearGradient id="frame" x1="8" y1="6" x2="56" y2="58" gradientUnits="userSpaceOnUse">
      <stop stop-color="#22d3ee"/>
      <stop offset=".5" stop-color="#2563eb"/>
      <stop offset="1" stop-color="#a855f7"/>
    </linearGradient>
  </defs>
  <rect x="1" y="1" width="62" height="62" rx="15" fill="#040914" stroke="url(#frame)" stroke-width="1.5"/>
  <g filter="url(#glow)" stroke="#020611" stroke-width="1.8" stroke-linejoin="round">
    <path d="M32 6 10 19 15 47 32 58 49 47 54 19Z" fill="#081326"/>
    <path d="M32 6 10 19 25 29Z" fill="#ff981f"/>
    <path d="M32 6 25 29 32 53Z" fill="#14c8ff"/>
    <path d="M32 6 39 29 32 53Z" fill="#2563eb"/>
    <path d="M32 6 54 19 39 29Z" fill="#d946ef"/>
    <path d="M10 19 15 47 25 29Z" fill="#06d6f0"/>
    <path d="M15 47 32 58 32 53 25 29Z" fill="#0ea5e9"/>
    <path d="M39 29 32 53 32 58 49 47Z" fill="#7c3aed"/>
    <path d="M54 19 49 47 39 29Z" fill="#f43f5e"/>
    <path d="M25 29 32 18 39 29 32 53Z" fill="#1597ff" fill-opacity=".68"/>
  </g>
</svg>